#N canvas 198 327 226 287 10;
#X obj 51 45 r pitch;
#X obj 51 72 * 10;
#X obj 51 99 + 40;
#X obj 51 126 mtof;
#X obj 51 153 osc~;
#X obj 51 180 *~;
#X obj 51 207 dac~;
#X obj 104 99 r volume;
#X msg 104 126 \$1 50;
#X obj 104 153 line~;
#X floatatom 135 52 5 0 0 0 - - -;
#X connect 0 0 1 0;
#X connect 1 0 2 0;
#X connect 2 0 3 0;
#X connect 2 0 10 0;
#X connect 3 0 4 0;
#X connect 4 0 5 0;
#X connect 5 0 6 0;
#X connect 5 0 6 1;
#X connect 7 0 8 0;
#X connect 8 0 9 0;
#X connect 9 0 5 1;
