#N canvas 315 450 413 162 10;
#N canvas 657 242 510 396 counter 1;
#X obj 247 191 inlet;
#X obj 299 187 inlet;
#X obj 66 123 metro;
#X floatatom 66 213 5 0 0 0 - - -;
#X floatatom 208 300 5 0 0 0 - - -;
#X floatatom 349 294 5 0 0 0 - - -;
#X obj 349 313 s restart;
#X obj 141 -21 r restart;
#X obj 10 229 / 1000;
#X floatatom 10 255 5 0 0 0 - - -;
#X obj 141 0 hradio 15 1 0 2 empty empty empty 0 -8 0 10 -262144 -1
-1 1;
#X obj 181 17 bng 15 250 50 0 empty empty empty 17 7 0 10 -262144 -1
-1;
#X obj 147 38 spigot;
#X obj 147 59 bng 15 250 50 0 empty empty empty 17 7 0 10 -262144 -1
-1;
#X obj 66 145 f;
#X obj 196 328 outlet;
#X text 244 328 Volume Outlet;
#X text 244 165 Duration;
#X text 296 163 startTimeNext;
#X obj 66 81 loadbang;
#X obj 298 115 loadbang;
#X obj 204 139 loadbang;
#X msg 204 163 1000;
#X msg 298 137 1000;
#X obj 406 133 metro;
#X floatatom 406 223 5 0 0 0 - - -;
#X obj 406 155 f;
#X obj 406 91 loadbang;
#X obj 35 49 r bang;
#X obj 362 70 r bang;
#X obj 196 260 expr if($f1 >= $f2 \, 0 \, 1) \; if($f4 >= $f3 \, 1
\, 0) \;;
#X msg 433 112 1000;
#X obj 433 172 + 1000;
#X msg 474 138 0;
#X obj 147 100 bng 15 250 50 0 empty empty empty 17 7 0 10 -262144
-1 -1;
#X obj 147 118 0;
#X obj 147 80 delay 50;
#X msg 93 102 100;
#X obj 108 161 + 100;
#X obj 146 220 print Duration;
#X obj 313 229 + 100;
#X obj 18 290 expr if($f1 >= 5000 \, 1 \, 0) \;;
#X connect 0 0 30 1;
#X connect 0 0 39 0;
#X connect 1 0 40 0;
#X connect 2 0 14 0;
#X connect 3 0 8 0;
#X connect 3 0 30 0;
#X connect 3 0 41 0;
#X connect 5 0 6 0;
#X connect 7 0 10 0;
#X connect 8 0 9 0;
#X connect 10 0 11 0;
#X connect 10 0 12 1;
#X connect 11 0 12 0;
#X connect 12 0 13 0;
#X connect 13 0 36 0;
#X connect 14 0 3 0;
#X connect 14 0 38 0;
#X connect 19 0 2 0;
#X connect 19 0 37 0;
#X connect 20 0 23 0;
#X connect 21 0 22 0;
#X connect 24 0 26 0;
#X connect 25 0 30 3;
#X connect 26 0 25 0;
#X connect 26 0 32 0;
#X connect 27 0 24 0;
#X connect 27 0 31 0;
#X connect 28 0 2 0;
#X connect 28 0 37 0;
#X connect 29 0 24 0;
#X connect 29 0 31 0;
#X connect 30 0 4 0;
#X connect 30 0 15 0;
#X connect 30 1 5 0;
#X connect 31 0 24 1;
#X connect 32 0 26 1;
#X connect 33 0 26 1;
#X connect 34 0 35 0;
#X connect 36 0 34 0;
#X connect 37 0 2 1;
#X connect 38 0 14 1;
#X connect 40 0 30 2;
#X restore 23 80 pd counter;
#X obj 23 34 r duration1;
#X obj 80 54 r startTimeNext1;
#N canvas 316 33 992 380 audio 1;
#X obj 38 20 r frequency1;
#X obj 38 46 osc~;
#X obj 38 75 *~;
#X obj 120 21 r lvl1;
#X obj 169 48 osc~;
#X obj 169 77 *~;
#X obj 298 50 osc~;
#X obj 298 79 *~;
#X obj 428 50 osc~;
#X obj 428 79 *~;
#X obj 572 54 osc~;
#X obj 572 83 *~;
#X obj 730 59 osc~;
#X obj 730 88 *~;
#X obj 169 22 r frequency2;
#X obj 252 23 r lvl2;
#X obj 298 24 r frequency3;
#X obj 380 25 r lvl3;
#X obj 428 24 r frequency4;
#X obj 510 25 r lvl4;
#X obj 572 28 r frequency5;
#X obj 654 29 r lvl5;
#X obj 730 33 r frequency6;
#X obj 812 34 r lvl6;
#X obj 38 106 *~ 1;
#X obj 73 107 *~ 0;
#X obj 168 105 *~ 0.8;
#X obj 214 104 *~ 0.2;
#X obj 298 107 *~ 0.6;
#X obj 341 108 *~ 0.4;
#X obj 572 108 *~ 0.2;
#X obj 613 109 *~ 0.8;
#X obj 730 114 *~ 0;
#X obj 764 115 *~ 1;
#X obj 428 105 *~ 0.4;
#X obj 473 106 *~ 0.6;
#X obj 159 146 dac~;
#N canvas 735 444 450 300 verb 1;
#X obj 221 111 freeverb~;
#X obj 144 72 hsl 36 24 0 0.9 0 0 empty wet1 empty -2 -8 0 10 -262144
-1 -1 3500 1;
#X obj 145 135 hsl 36 24 0 1 0 0 empty dry1 empty -2 -8 0 10 -262144
-1 -1 1750 1;
#X obj 146 198 hsl 36 24 0 1 0 0 empty size1 empty -2 -8 0 10 -262144
-1 -1 3150 1;
#X obj 11 166 loadbang;
#X obj 15 224 0.9;
#X obj 76 222 0.5;
#X obj 75 272 0.9;
#X obj 221 138 outlet~;
#X obj 272 145 outlet~;
#X obj 272 86 inlet~;
#X obj 221 88 inlet~;
#X msg 97 46 0.9;
#X msg 72 195 0.5;
#X obj 26 2 r bang;
#X obj 26 30 bng 15 250 50 0 empty empty empty 17 7 0 10 -262144 -1
-1;
#X obj 73 4 loadbang;
#X msg 142 160 dry \$1;
#X msg 143 228 roomsize \$1;
#X msg 141 102 wet \$1;
#X msg 68 89 0.5;
#X connect 0 0 8 0;
#X connect 0 1 9 0;
#X connect 1 0 19 0;
#X connect 2 0 17 0;
#X connect 3 0 18 0;
#X connect 4 0 5 0;
#X connect 4 0 6 0;
#X connect 4 0 7 0;
#X connect 4 0 13 0;
#X connect 10 0 0 1;
#X connect 11 0 0 0;
#X connect 12 0 1 0;
#X connect 12 0 3 0;
#X connect 14 0 15 0;
#X connect 15 0 12 0;
#X connect 15 0 20 0;
#X connect 16 0 15 0;
#X connect 17 0 0 0;
#X connect 18 0 0 0;
#X connect 19 0 0 0;
#X connect 20 0 2 0;
#X restore 30 330 pd verb;
#X obj 38 178 dac~;
#X obj 294 166 dac~;
#X obj 428 153 dac~;
#X obj 572 140 dac~;
#X obj 743 142 dac~;
#X msg 404 277 open music.wav;
#X msg 255 294 start;
#X msg 365 253 stop;
#X obj 365 335 writesf~ 2;
#X obj 255 234 r bang;
#X obj 255 255 bng 15 250 50 0 empty empty empty 17 7 0 10 -262144
-1 -1;
#X obj 364 204 r stopBang;
#X obj 255 274 delay 50;
#X obj 50 140 s~ l1;
#X obj 227 149 s~ r2;
#X obj 340 137 s~ l3;
#X obj 193 148 s~ l2;
#X obj 374 138 s~ r3;
#X obj 462 132 s~ l4;
#X obj 496 133 s~ r4;
#X obj 635 135 s~ l5;
#X obj 669 136 s~ r5;
#X obj 814 145 s~ r6;
#X obj 251 343 r~ l1 \;;
#X obj 252 363 r~ l2 \;;
#X obj 252 382 r~ l3 \;;
#X obj 251 403 r~ l4 \;;
#X obj 251 423 r~ l5 \;;
#X obj 623 250 r~ r2 \;;
#X obj 623 269 r~ r3 \;;
#X obj 622 290 r~ r4 \;;
#X obj 622 310 r~ r5 \;;
#X obj 622 330 r~ r6 \;;
#X obj 310 352 *~ 0.25;
#X obj 500 316 *~ 0.25;
#X connect 0 0 1 0;
#X connect 1 0 2 0;
#X connect 2 0 24 0;
#X connect 2 0 25 0;
#X connect 3 0 2 1;
#X connect 4 0 5 0;
#X connect 5 0 26 0;
#X connect 5 0 27 0;
#X connect 6 0 7 0;
#X connect 7 0 28 0;
#X connect 7 0 29 0;
#X connect 8 0 9 0;
#X connect 9 0 34 0;
#X connect 9 0 35 0;
#X connect 10 0 11 0;
#X connect 11 0 30 0;
#X connect 11 0 31 0;
#X connect 12 0 13 0;
#X connect 13 0 32 0;
#X connect 13 0 33 0;
#X connect 14 0 4 0;
#X connect 15 0 4 1;
#X connect 16 0 6 0;
#X connect 17 0 7 1;
#X connect 18 0 8 0;
#X connect 19 0 9 1;
#X connect 20 0 10 0;
#X connect 21 0 11 1;
#X connect 22 0 12 0;
#X connect 23 0 13 1;
#X connect 24 0 38 0;
#X connect 24 0 51 0;
#X connect 26 0 36 0;
#X connect 26 0 54 0;
#X connect 27 0 36 1;
#X connect 27 0 52 0;
#X connect 28 0 39 0;
#X connect 28 0 53 0;
#X connect 29 0 39 1;
#X connect 29 0 55 0;
#X connect 30 0 41 0;
#X connect 30 0 58 0;
#X connect 31 0 41 1;
#X connect 33 0 42 1;
#X connect 33 0 60 0;
#X connect 34 0 40 0;
#X connect 34 0 56 0;
#X connect 35 0 40 1;
#X connect 35 0 57 0;
#X connect 47 0 48 0;
#X connect 48 0 43 0;
#X connect 48 0 50 0;
#X connect 49 0 45 0;
#X connect 50 0 44 0;
#X connect 61 0 71 0;
#X connect 62 0 71 0;
#X connect 63 0 71 0;
#X connect 64 0 71 0;
#X connect 65 0 71 0;
#X connect 66 0 72 0;
#X connect 67 0 72 0;
#X connect 68 0 72 0;
#X connect 69 0 72 0;
#X connect 70 0 72 0;
#X restore 23 110 pd audio;
#X connect 1 0 0 0;
#X connect 2 0 0 1;
